<svg id="Capa_1" enable-background="new 0 0 577.956 577.956" height="512" viewBox="0 0 577.956 577.956" width="512" xmlns="http://www.w3.org/2000/svg"><g><path d="m49.935 499.751h478.085c27.561-.043 49.892-22.375 49.935-49.935v-321.676c-.043-27.561-22.375-49.892-49.935-49.935h-478.085c-27.56.043-49.892 22.374-49.935 49.935v321.658c.033 27.567 22.368 49.91 49.935 49.953zm-40.688-371.611c.033-22.458 18.23-40.655 40.688-40.688h478.085c22.458.033 40.655 18.23 40.688 40.688v321.658c-.033 22.458-18.23 40.655-40.688 40.688h-478.085c-22.458-.033-40.655-18.23-40.688-40.688z"/><path d="m64.819 440.19h449.492c17.062-.02 30.889-13.847 30.909-30.909v-250.699c-.02-17.062-13.847-30.889-30.909-30.909h-449.492c-.074 0-.148 0-.222 0h-.069c-16.951.172-30.606 13.957-30.618 30.909v250.698c.02 17.063 13.847 30.889 30.909 30.91zm-21.662-30.91v-37.747l77.594-76.188 147.61 135.598h-203.542c-11.957-.016-21.647-9.705-21.662-21.663zm0-123.28 37.826 35.431-37.826 37.137zm345.104-149.103-93.028 86.462-49.561-50.675 36.444-35.787zm-210.838 89.86-100.5-89.861h191.992zm61.652-47.595 52.132 53.283c.107.211.231.414.37.606.22.191.459.36.712.504l36.989 37.789 50.976 125.541c.707 1.743 2.4 2.884 4.281 2.885h.217c1.96-.092 3.649-1.412 4.212-3.292l15.72-52.451 47.707 42.538-39.523 44.387h-130.826l-154.688-142.094zm161.795 152.196c-.079.028-.129.097-.203.129-.467.193-.897.465-1.272.805-.148.094-.288.199-.421.314 0 0-.06.032-.083.06-.425.489-.74 1.062-.925 1.683 0 0-.032.042-.042.065l-14.047 46.828-42.454-104.494 105.794 39.037zm101.299 99.584h-76.905l34.039-38.228zm33.804-272.36v250.698c-.034 11.319-8.791 20.696-20.081 21.505l-53.884-48.044-50.638-45.15 51.225-17.181c2.422-.808 3.731-3.427 2.922-5.849-.445-1.332-1.47-2.39-2.788-2.875l-126.956-46.907-34.072-34.825 100.144-93.055h112.466c11.967.011 21.662 9.716 21.662 21.683zm-472.74-21.523 107.555 96.172-83.202 81.714-44.429-41.613v-114.75c.022-11.325 8.78-20.714 20.076-21.523z"/><path d="m318.638 461.158h-41.742c-2.554 0-4.624 2.07-4.624 4.624s2.07 4.624 4.624 4.624h41.742c2.554 0 4.624-2.07 4.624-4.624s-2.07-4.624-4.624-4.624z"/></g></svg>