<?xml version="1.0" encoding="utf-8"?>
<!-- Generator: Adobe Illustrator 28.1.0, SVG Export Plug-In . SVG Version: 6.00 Build 0)  -->
<svg version="1.1" xmlns="http://www.w3.org/2000/svg" xmlns:xlink="http://www.w3.org/1999/xlink" x="0px" y="0px"
	 viewBox="0 0 4100.83 4098.16" style="enable-background:new 0 0 4100.83 4098.16;" xml:space="preserve">
<style type="text/css">
	.st0{fill:none;stroke:#1D1D1B;stroke-width:17;stroke-miterlimit:10;}
	.st1{fill:none;stroke:#1D1D1B;stroke-width:13;stroke-miterlimit:10;}
	.st2{fill:none;stroke:#1D1D1B;stroke-width:25;stroke-miterlimit:10;}
	.st3{fill:none;stroke:#1D1D1B;stroke-width:27;stroke-miterlimit:10;}
	.st4{fill:none;stroke:#1D1D1B;stroke-width:12;stroke-miterlimit:10;}
</style>
<g>
	<g>
		<path class="st0" d="M3601.04,1025.76c336.34,508.57,415.59,1172.18,152.41,1772.07
			c-412.06,939.22-1507.48,1366.59-2446.71,954.53"/>
		<g>
			<path class="st1" d="M3395.97,1165.9c308.29,458.84,352.15,1076.64,111.02,1573.73c-230.37,501.7-737.2,859.13-1286.82,912.41
				c-546.79,62.71-1118.9-183.94-1447.81-625.62"/>
			<path class="st2" d="M3935.95,2268.81"/>
			<path class="st2" d="M2845.09,3773.03"/>
			<path class="st3" d="M3841.84,1086.49c195.14,363.89,281.75,786.26,231.46,1198.2c-74.99,693.05-533.75,1328.47-1170.43,1613.96
				c-630.11,298.37-1412.75,232.82-1986.68-161.05"/>
			<path class="st3" d="M3301.09,446.16"/>
			<path class="st4" d="M823.24,3239.84c403.96,423.89,1035.63,614.13,1605.99,479.54c573.49-124.96,1062.2-565.11,1244.04-1123.53
				c193.3-553.64,66.8-1201.02-313.49-1646.5"/>
			<path class="st2" d="M801.94,3260.39"/>
			<path class="st2" d="M2435.78,3748.25"/>
			<path class="st2" d="M3701.32,2605.32"/>
			<path class="st2" d="M3318.16,2712.61"/>
			<path class="st0" d="M907.73,2854.74c270.35,393.58,759.55,627.7,1235.67,592.3c479.22-27.1,931.63-321.68,1148.51-748.1
				c227.09-425.04,209.23-960.35-42.84-1370.68"/>
			<path class="st2" d="M883.47,2871.7"/>
			<path class="st2" d="M2145.35,3476.58"/>
		</g>
	</g>
</g>
<path class="st3" d="M3948.32,1327.12"/>
<path class="st3" d="M2418.87,48.98"/>
<path class="st3" d="M29.03,1803.57"/>
<path class="st3" d="M137.52,1344.82"/>
<path class="st3" d="M3412.13,3550.44c-306.57,276.61-695.91,461.84-1107.9,511.68c-690.84,93.16-1417.64-200.07-1847.3-749.85"/>
</svg>
